@startuml Explanation
skinparam classAttributeIconSize 0
skinparam classFontSize 16
skinparam classFontName Trebuchet MS
skinparam classBackgroundColor #F0F0F0
skinparam classBorderColor #585858
skinparam classArrowColor #585858
skinparam wrapWidth 400
skinparam RoundCorner 0
skinparam DefaultFontName Trebuchet MS
skinparam DefaultFontSize 16
skinparam ClassFontSize 16
skinparam TitleFontSize 20
skinparam notefontsize 10
skinparam NoteBackgroundColor #F0F0F0
skinparam ClassAttributeFontSize 12
skinparam ClassStereotypeFontSize 10
skinparam ArrowFontSize 10
skinparam Dpi 300
skinparam svgAntiAlias true
skinparam Linetype ortho
skinparam Nodesep 50
skinparam ranksep 75
skinparam groupInheritance 2
skinparam packageStyle Rectangle

top to bottom direction

class Class
interface Interface

Class ..|> Interface : Implements

class A
class B

A --> B : Uses

class C
class D

C ..> D : Depends on

class E
class F

E *-- F : Composition

class G
class H

G o-- H : Aggregation

hide members
@enduml